# xmcd
#
# Track frame offsets:
#	150
#	20825
#	43051
#	60303
#	80908
#	96464
#	113621
#	129016
#	152297
#	172157
#	178442
#	192285
#	206502
#
# Disc length: 2940 seconds
#
# Revision: 1
# Processed by: cddbd v1.5.1PL0 Copyright (c) Steve Scherf et al.
# Submitted via: audiograbber 1.83.01
#
DISCID=b10b7a0d
DTITLE=Jubilee Jumpers - Jump Session
DYEAR=1900
DGENRE=
TTITLE0=I know your Wig is gone
TTITLE1=Is you is or is you ain't
TTITLE2=The Jubilee Jump
TTITLE3=St Louis Blues
TTITLE4=Jump Session
TTITLE5=Hey Bartender
TTITLE6=Jumping at the Jubilee
TTITLE7=One Scotch, one Bourbon, one Beer
TTITLE8=Toodle-oo on down
TTITLE9=Jump right in
TTITLE10=Red Top
TTITLE11=Drum Boogie
TTITLE12=Everybody Get Together (live)
EXTD=
EXTT0=
EXTT1=
EXTT2=
EXTT3=
EXTT4=
EXTT5=
EXTT6=
EXTT7=
EXTT8=
EXTT9=
EXTT10=
EXTT11=
EXTT12=
PLAYORDER=
